<svg xmlns="http://www.w3.org/2000/svg" width="350" height="350" viewBox="0 0 350 350">
  <g id="Group_8" data-name="Group 8" transform="translate(-916 -63)">
    <g id="Path_2" data-name="Path 2" transform="translate(916 63)" fill="#eae5e5">
      <path d="M 175 349.5 C 163.1600952148438 349.5 151.3277282714844 348.3072204589844 139.8316345214844 345.9547729492188 C 128.6279602050781 343.6621704101562 117.6076812744141 340.2412719726562 107.0768661499023 335.7871398925781 C 96.73713684082031 331.4137878417969 86.76445770263672 326.0007629394531 77.43572998046875 319.6984558105469 C 68.19554901123047 313.4558715820312 59.50650024414062 306.2867126464844 51.60986328125 298.39013671875 C 43.71327209472656 290.4934997558594 36.54413604736328 281.804443359375 30.30154609680176 272.5642700195312 C 23.99922752380371 263.2355346679688 18.58622741699219 253.2628631591797 14.21286392211914 242.9231414794922 C 9.758727073669434 232.3923187255859 6.337818145751953 221.3720397949219 4.04522705078125 210.1683654785156 C 1.692772746086121 198.6722717285156 0.5 186.8399047851562 0.5 175 C 0.5 163.1600952148438 1.692772746086121 151.3277282714844 4.04522705078125 139.8316345214844 C 6.337818145751953 128.6279602050781 9.758727073669434 117.6076812744141 14.21286392211914 107.0768661499023 C 18.58622741699219 96.73713684082031 23.99922752380371 86.76445770263672 30.30154609680176 77.43572998046875 C 36.54413604736328 68.19554901123047 43.71327209472656 59.50650024414062 51.60986328125 51.60986328125 C 59.50650024414062 43.71327209472656 68.19554901123047 36.54413604736328 77.43572998046875 30.30154609680176 C 86.76445770263672 23.99922752380371 96.73713684082031 18.58622741699219 107.0768661499023 14.21286392211914 C 117.6076812744141 9.758727073669434 128.6279602050781 6.337818145751953 139.8316345214844 4.04522705078125 C 151.3277282714844 1.692772746086121 163.1600952148438 0.5 175 0.5 C 186.8399047851562 0.5 198.6722717285156 1.692772746086121 210.1683654785156 4.04522705078125 C 221.3720397949219 6.337818145751953 232.3923187255859 9.758727073669434 242.9231414794922 14.21286392211914 C 253.2628631591797 18.58622741699219 263.2355346679688 23.99922752380371 272.5642700195312 30.30154609680176 C 281.804443359375 36.54413604736328 290.4934997558594 43.71327209472656 298.39013671875 51.60986328125 C 306.2867126464844 59.50650024414062 313.4558715820312 68.19554901123047 319.6984558105469 77.43572998046875 C 326.0007629394531 86.76445770263672 331.4137878417969 96.73713684082031 335.7871398925781 107.0768661499023 C 340.2412719726562 117.6076812744141 343.6621704101562 128.6279602050781 345.9547729492188 139.8316345214844 C 348.3072204589844 151.3277282714844 349.5 163.1600952148438 349.5 175 C 349.5 186.8399047851562 348.3072204589844 198.6722717285156 345.9547729492188 210.1683654785156 C 343.6621704101562 221.3720397949219 340.2412719726562 232.3923187255859 335.7871398925781 242.9231414794922 C 331.4137878417969 253.2628631591797 326.0007629394531 263.2355346679688 319.6984558105469 272.5642700195312 C 313.4558715820312 281.804443359375 306.2867126464844 290.4934997558594 298.39013671875 298.39013671875 C 290.4934997558594 306.2867126464844 281.804443359375 313.4558715820312 272.5642700195312 319.6984558105469 C 263.2355346679688 326.0007629394531 253.2628631591797 331.4137878417969 242.9231414794922 335.7871398925781 C 232.3923187255859 340.2412719726562 221.3720397949219 343.6621704101562 210.1683654785156 345.9547729492188 C 198.6722717285156 348.3072204589844 186.8399047851562 349.5 175 349.5 Z" stroke="none"/>
      <path d="M 175 1 C 163.1936798095703 1 151.3950500488281 2.189361572265625 139.9318695068359 4.53509521484375 C 128.7605438232422 6.821044921875 117.7720489501953 10.23208618164062 107.2716827392578 14.67337036132812 C 96.96168518066406 19.03414916992188 87.017578125 24.431640625 77.71563720703125 30.71585083007812 C 68.5018310546875 36.94058227539062 59.83755493164062 44.08932495117188 51.96340942382812 51.96340942382812 C 44.08932495117188 59.83755493164062 36.94058227539062 68.5018310546875 30.71585083007812 77.71563720703125 C 24.431640625 87.017578125 19.03414916992188 96.96168518066406 14.67337036132812 107.2716827392578 C 10.23208618164062 117.7720489501953 6.821044921875 128.7605438232422 4.53509521484375 139.9318695068359 C 2.189361572265625 151.3950500488281 1 163.1936798095703 1 175 C 1 186.8063201904297 2.189361572265625 198.6049499511719 4.53509521484375 210.0681304931641 C 6.821044921875 221.2394561767578 10.23208618164062 232.2279510498047 14.67337036132812 242.7283172607422 C 19.03414916992188 253.0383148193359 24.431640625 262.982421875 30.71585083007812 272.2843627929688 C 36.94058227539062 281.4981689453125 44.08932495117188 290.1624450683594 51.96340942382812 298.0365905761719 C 59.83755493164062 305.9106750488281 68.5018310546875 313.0594177246094 77.71563720703125 319.2841491699219 C 87.017578125 325.568359375 96.96168518066406 330.9658508300781 107.2716827392578 335.3266296386719 C 117.7720489501953 339.7679138183594 128.7605438232422 343.178955078125 139.9318695068359 345.4649047851562 C 151.3950500488281 347.8106384277344 163.1936798095703 349 175 349 C 186.8063201904297 349 198.6049499511719 347.8106384277344 210.0681304931641 345.4649047851562 C 221.2394561767578 343.178955078125 232.2279510498047 339.7679138183594 242.7283172607422 335.3266296386719 C 253.0383148193359 330.9658508300781 262.982421875 325.568359375 272.2843627929688 319.2841491699219 C 281.4981689453125 313.0594177246094 290.1624450683594 305.9106750488281 298.0365905761719 298.0365905761719 C 305.9106750488281 290.1624450683594 313.0594177246094 281.4981689453125 319.2841491699219 272.2843627929688 C 325.568359375 262.982421875 330.9658508300781 253.0383148193359 335.3266296386719 242.7283172607422 C 339.7679138183594 232.2279510498047 343.178955078125 221.2394561767578 345.4649047851562 210.0681304931641 C 347.8106384277344 198.6049499511719 349 186.8063201904297 349 175 C 349 163.1936798095703 347.8106384277344 151.3950500488281 345.4649047851562 139.9318695068359 C 343.178955078125 128.7605438232422 339.7679138183594 117.7720489501953 335.3266296386719 107.2716827392578 C 330.9658508300781 96.96168518066406 325.568359375 87.017578125 319.2841491699219 77.71563720703125 C 313.0594177246094 68.5018310546875 305.9106750488281 59.83755493164062 298.0365905761719 51.96340942382812 C 290.1624450683594 44.08932495117188 281.4981689453125 36.94058227539062 272.2843627929688 30.71585083007812 C 262.982421875 24.431640625 253.0383148193359 19.03414916992188 242.7283172607422 14.67337036132812 C 232.2279510498047 10.23208618164062 221.2394561767578 6.821044921875 210.0681304931641 4.53509521484375 C 198.6049499511719 2.189361572265625 186.8063201904297 1 175 1 M 175 0 C 271.6498107910156 0 350 78.35018920898438 350 175 C 350 271.6498107910156 271.6498107910156 350 175 350 C 78.35018920898438 350 0 271.6498107910156 0 175 C 0 78.35018920898438 78.35018920898438 0 175 0 Z" stroke="none" fill="#707070"/>
    </g>
    <g id="Group_3" data-name="Group 3" transform="translate(-7 -375)">
      <g id="Group_1" data-name="Group 1" transform="translate(5 13)">
        <g id="Rectangle_1" data-name="Rectangle 1" transform="translate(1016 480)" fill="none" stroke="#777" stroke-width="10">
          <rect width="155" height="240" rx="35" stroke="none"/>
          <rect x="5" y="5" width="145" height="230" rx="30" fill="none"/>
        </g>
        <text id="_" data-name="{" transform="translate(960 629)" fill="#777" stroke="#777" stroke-width="1" font-size="112" font-family="HelveticaNeue, Helvetica Neue"><tspan x="0" y="0">{</tspan></text>
        <text id="_2" data-name="}" transform="translate(1198 629)" fill="#777" stroke="#777" stroke-width="1" font-size="112" font-family="HelveticaNeue, Helvetica Neue"><tspan x="0" y="0">}</tspan></text>
        <path id="Path_1" data-name="Path 1" d="M1025.735,581.509l12.5-3.026,38.383-21.1,5.44-2.617,6.437-2.321,9-3.173,9.1-1.985h12.465l6.939.986,3.788,1.175,3.948,1.641,4.107,1.855,2.6,1.425,2.57,1.9,3.751,2.707,2.307,1.944,2.411,2.018,2.215,1.732,1.8,1.864,1.825,1.9,1.891,1.811,1.395,1.418,1.019,1.052.959.535-1.843,136.364s-32.076,1.9-65.83,1.885-69.184-1.937-69.184-1.937Z" fill="#777" stroke="#777" stroke-width="1"/>
      </g>
    </g>
  </g>
</svg>
